<svg width="400" height="100" viewBox="0 0 400 100" xmlns="http://www.w3.org/2000/svg" fill="none">
  <!-- Icon background -->
  <rect x="10" y="10" width="80" height="80" rx="18" fill="#2563eb"/>
  
  <!-- Inner white rounded border -->
  <rect x="20" y="20" width="60" height="60" rx="15" fill="none" stroke="#fff" stroke-width="6"/>
  
  <!-- Phone handset icon -->
  <path d="M50.5,35.5c-1.2-1.2-3.1-1.2-4.2,0l-3.1,3.1c-1.2,1.2-1.2,3.1,0,4.2l2.1,2.1c-1.6,2.9-3.8,5.5-6.5,7.5l-2.1-2.1c-1.2-1.2-3.1-1.2-4.2,0l-3.1,3.1c-1.2,1.2-1.2,3.1,0,4.2l2.1,2.1c1.2,1.2,3.1,1.2,4.2,0l3.1-3.1c1.2-1.2,1.2-3.1,0-4.2l-2.1-2.1c2.9-1.6,5.5-3.8,7.5-6.5l2.1,2.1c1.2,1.2,3.1,1.2,4.2,0l3.1-3.1c1.2-1.2,1.2-3.1,0-4.2L50.5,35.5z" fill="#fff"/>
  
  <!-- Brand name -->
  <text x="105" y="65" font-family="Segoe UI, Helvetica, Arial, sans-serif" font-size="32" fill="#111" font-weight="600">
    CallWindow
  </text>
</svg>