<svg width="400" height="100" viewBox="0 0 400 100" xmlns="http://www.w3.org/2000/svg" fill="none">
  <!-- Icon background -->
  <rect x="10" y="10" width="80" height="80" rx="18" fill="#2563eb"/>

  <!-- Inner white rounded border -->
  <rect x="20" y="20" width="60" height="60" rx="15" fill="none" stroke="#fff" stroke-width="6"/>

  <!-- Simplified phone handset -->
  <path fill="#fff" d="M50 40c.7-1.3.3-2.8-.9-3.6l-1.2-.8c-1.5-1.1-3.6-.6-4.5 1l-.7 1.3c-.4.7-.3 1.6.3 2.2 2 2.2 4.1 4.3 6.3 6.3.6.5 1.5.6 2.1.1l1.2-1c1.2-.9 1.6-2.5.9-3.9l-.8-1.4c-.8-1.4-2.6-1.7-3.7-.6z"/>

  <!-- Brand name -->
  <text x="105" y="68" font-family="Segoe UI, Helvetica, Arial, sans-serif" font-size="32" fill="#111" font-weight="600">
    CallWindow
  </text>
</svg>