<svg width="400" height="100" viewBox="0 0 400 100" xmlns="http://www.w3.org/2000/svg" fill="none">
  <!-- Icon background -->
  <rect x="10" y="10" width="80" height="80" rx="18" fill="#2563eb"/>
  
  <!-- Inner white rounded windowpane -->
  <rect x="24" y="24" width="52" height="52" rx="13" fill="none" stroke="#fff" stroke-width="6"/>
  
  <!-- Stylized phone handset -->
  <path fill="#fff" d="M52.3 43.2c.7-1.4.7-3-.1-4.4l-.7-1.2c-1.3-2.3-4.1-3.2-6.3-2.1l-2.6 1.3c-.6.3-.9 1.1-.6 1.7 1.5 3.2 3.4 6.3 5.6 9.2s4.6 5.4 7.2 7.5c.5.4 1.3.3 1.7-.2l1.8-2.5c1.4-2 1-4.8-.9-6.4l-1.1-.9c-1.1-.9-2.7-1.1-4-.4l-.8.4c-1.1.5-2.4.1-3.2-.8-.6-.7-.5-1.9 0-2.6z"/>
  
  <!-- Brand name -->
  <text x="105" y="65" font-family="Segoe UI, Helvetica, Arial, sans-serif" font-size="32" fill="#111" font-weight="600">
    CallWindow
  </text>
</svg>