<svg width="400" height="100" viewBox="0 0 400 100" xmlns="http://www.w3.org/2000/svg" fill="none">
  <!-- Icon background -->
  <rect x="10" y="10" width="80" height="80" rx="18" fill="#2563eb"/>

  <!-- Inner white rounded windowpane -->
  <rect x="20" y="20" width="60" height="60" rx="15" fill="none" stroke="#fff" stroke-width="6"/>

  <!-- Phone handset (inspired by uploaded image) -->
  <path fill="#fff" d="M47.5,36.5c1.8-1.8,4.7-1.8,6.5,0l2.1,2.1c1.1,1.1,1.4,2.7,0.7,4l-2,4c-.4.7-.2,1.5.4,2l5.3,4.1c.6.5.8,1.3.5,2l-1.8,4.1c-.6,1.4-2.1,2.1-3.6,1.8-5.4-1-10.7-4.4-15.7-9.5s-8.5-10.3-9.5-15.7c-.3-1.5.5-3,1.8-3.6l4.1-1.8c.7-.3,1.6-.1,2,.5l4.1,5.3c.5.6,1.3.8,2,.4l4-2c1.3-.6,2.9-.3,4,.7l2.1,2.1z"/>

  <!-- Brand name -->
  <text x="105" y="65" font-family="Segoe UI, Helvetica, Arial, sans-serif" font-size="32" fill="#111" font-weight="600">
    CallWindow
  </text>
</svg>