<?xml version="1.0" encoding="UTF-8" standalone="no"?>
<!-- Created with Inkscape (http://www.inkscape.org/) -->

<svg
   version="1.1"
   id="svg1"
   width="592"
   height="160"
   viewBox="0 0 592 160"
   xml:space="preserve"
   xmlns="http://www.w3.org/2000/svg"
   xmlns:svg="http://www.w3.org/2000/svg"><defs
     id="defs1" /><g
     id="g1"><path
       id="path1"
       style="fill:#613fb4;fill-opacity:1;stroke-width:1.06352"
       d="m 80.450769,1.4694812 -73.7022676,0.307024 -2.622826,2.9218176 -2.620704,2.921817 v 1.077635 c 0.003,0.02226 0.0058,0.04442 0.0085,0.0671 0.0015,0.02084 -8.3e-5,0.04216 0,0.06303 9.5e-5,0.04964 -2.36e-4,0.0988 0,0.14843 2.3e-4,0.05436 0.0016,0.110332 0.0022,0.164694 3.1e-5,0.0057 3.5e-5,0.01063 0,0.01627 v 0.0021 c 1.48e-4,6.44e-4 0.0017,0.0028 0.0022,0.004 v 0.0021 0.0021 0.0021 h -0.0022 l -0.0022,0.0021 v 0.0021 h 0.0022 v 0.0021 0.0021 h -0.0022 -0.0022 c -0.0017,-3e-4 -0.0034,-0.0012 -0.0064,-0.0021 V 80.293881 c 10e-7,71.336759 0.03996,72.722979 2.194176,75.347079 1.207033,1.47032 3.284923,2.87444 4.617533,3.12108 1.332611,0.24664 35.2286726,0.51371 75.3256136,0.59169 75.310316,0.14646 78.598586,-0.0198 80.857746,-4.06452 0.6649,-1.19045 1.06313,-29.43792 1.06313,-75.365389 0,-71.3709982 -0.0613,-73.5189452 -2.11354,-75.4853542 -1.16179,-1.113204 -3.7286,-2.3050446 -5.70402,-2.6493576 -1.9754,-0.344309 -36.75798,-0.488459 -77.294843,-0.319225 z m 2.968712,3.9506536 c 48.653029,0 74.305559,0.365201 75.694859,1.077637 2.04699,1.049683 2.10293,2.967917 2.10293,73.8770392 0,70.909109 -0.056,72.827359 -2.10293,73.877039 -1.38945,0.7125 -27.10056,1.07763 -75.88371,1.07763 -70.100492,0 -73.8740366,-0.0944 -75.5823876,-1.90314 -1.636332,-1.7325 -1.797358,-8.32195 -1.797358,-73.232489 0,-67.779286 0.09818,-71.4123142 1.986218,-73.0494982 1.807656,-1.567486 8.6263536,-1.724218 75.5823786,-1.724218 z M 14.901333,17.042339 c -0.251147,0.01046 -0.517228,0.06509 -0.793639,0.166727 -2.083897,0.766221 -2.420395,7.963111 -0.46048,9.841055 1.940404,1.859248 4.157695,-0.454723 4.137955,-4.318676 -0.01863,-3.645813 -1.125804,-5.761712 -2.883836,-5.689106 z m 35.306297,7.106297 c -9.159566,-0.335863 -20.654485,10.06512 -24.322681,23.852365 -3.15481,11.85763 0.0578,22.05192 12.445692,39.48622 14.175162,19.949669 42.677396,42.477629 60.95737,48.180499 1.493899,0.46606 6.432349,0.74647 10.975119,0.6242 7.03496,-0.1893 9.36289,-0.76251 15.69876,-3.86524 13.87456,-6.79456 20.44926,-18.15847 14.61653,-25.26345 -2.98241,-3.63296 -18.54854,-12.213897 -22.15609,-12.213897 -4.42646,0 -9.103,2.75028 -11.0982,6.524777 -2.7407,5.18484 -4.84419,7.0087 -8.080682,7.0087 -10.138341,0 -44.543488,-32.934609 -44.484069,-42.582879 0.02193,-3.56138 0.754765,-4.47783 6.198443,-7.74475 5.287289,-3.17307 8.373204,-8.08616 7.548052,-12.01667 C 67.668765,42.151038 59.172435,28.538085 56.051695,26.185979 54.311756,24.874585 52.321377,24.226144 50.20763,24.148636 Z m -35.348737,6.459717 c -0.256669,0.0027 -0.512035,0.04627 -0.751199,0.134197 -1.486897,0.546711 -1.737941,2.885169 -1.737941,16.113711 1e-6,8.51111 0.325236,15.78691 0.723612,16.16861 1.284299,1.23059 3.3711,0.74069 4.04883,-0.95156 1.029165,-2.5698 0.741935,-28.890578 -0.333159,-30.517452 -0.396078,-0.599361 -1.180138,-0.955488 -1.950143,-0.947506 z m 72.955317,0.83161 c -2.377628,0.08983 -3.736899,0.740066 -3.736899,1.935678 0,1.570127 1.35185,2.142793 7.282805,3.08448 19.542164,3.102805 34.275444,16.7629 37.430444,34.70599 0.63886,3.63334 1.33599,7.19169 1.54907,7.90741 0.21311,0.71571 1.1369,1.30129 2.05201,1.30129 0.91509,0 1.70799,-0.58558 1.7634,-1.30129 C 135.70008,59.119021 119.34747,38.412592 97.658288,32.861222 93.58782,31.81938 90.191817,31.350144 87.81421,31.439963 Z m 88.61375,5.211285 v 6.073395 c 0,3.339998 0.32582,6.385598 0.72572,6.768788 0.39993,0.38316 93.90494,0.57973 207.78896,0.43511 l 207.06322,-0.26432 0.32256,-6.506492 0.32467,-6.506481 H 384.53946 Z m -87.177147,8.993173 c -4.305514,-0.10856 -5.71674,0.22388 -5.71674,1.34604 0,0.97077 2.463631,2.06575 7.068476,3.14141 13.219671,3.08804 21.590841,10.68392 23.951321,21.72961 0.69492,3.25189 1.45399,6.53126 1.68702,7.28929 0.23303,0.75805 1.28031,1.21018 2.32786,1.00445 1.49652,-0.29387 1.8384,-1.2587 1.59576,-4.50167 -1.16789,-15.60962 -15.6033,-29.62304 -30.913697,-30.00913 z m -2.327863,12.98045 c -0.280887,0.005 -0.548944,0.0244 -0.804244,0.0589 -4.424107,0.59951 -2.944508,3.15485 2.607974,4.50574 6.473566,1.57494 10.248263,4.89228 11.78998,10.3575 0.65577,2.32457 1.36489,4.81073 1.57667,5.52643 0.52132,1.76182 3.64005,1.65447 4.3629,-0.15046 1.02699,-2.56433 -1.72949,-9.91792 -5.09288,-13.58837 -3.342256,-3.64741 -10.227093,-6.78763 -14.4404,-6.70981 z m 417.87607,1.97431 c -3.21533,-0.16789 -6.48048,0.28728 -9.36876,1.44362 -14.98744,6.00023 -15.10527,30.41701 -0.17613,36.647762 7.83634,3.270537 19.79594,0.5081 24.35452,-5.62607 5.43185,-7.309302 4.88402,-20.227382 -1.13741,-26.798572 -3.09405,-3.37653 -8.31334,-5.38695 -13.67222,-5.66674 z m -297.4701,0.33345 c -4.35489,-0.0529 -8.66276,0.71596 -10.92208,2.33014 -6.32766,4.52079 -7.48439,7.13748 -7.48439,16.92904 0,7.86856 0.33548,9.48419 2.60797,12.537192 1.4348,1.92757 4.61274,4.37723 7.06212,5.44308 2.44936,1.06585 6.37692,1.947477 8.72791,1.960067 5.36211,0.0286 12.89015,-3.391477 15.33588,-6.968037 1.77422,-2.594552 1.76664,-2.792642 -0.16763,-4.147862 -1.79916,-1.26056 -2.26374,-1.11967 -4.05945,1.24233 -4.36043,5.735552 -11.72441,7.226832 -17.89293,3.623282 -10.75582,-6.283372 -8.09681,-26.567942 3.76236,-28.699692 5.13246,-0.92259 8.92894,0.256 12.44568,3.86323 2.57868,2.64502 3.39017,2.94837 5.28172,1.97837 2.81018,-1.44105 1.617,-3.99894 -3.49496,-7.49261 -2.44539,-1.67124 -6.8473,-2.54571 -11.2022,-2.59853 z m 236.37267,0.46765 v 18.85659 18.856622 h 10.09237 c 14.03631,0 19.56329,-2.83785 23.23407,-11.933312 3.31287,-8.20857 0.24018,-18.30488 -6.84777,-22.50226 -3.54525,-2.09945 -5.93152,-2.5475 -15.33802,-2.88114 z m -173.83652,0.23586 v 18.73867 18.738682 h 13.03774 c 12.31343,0 13.03774,-0.11569 13.03774,-2.08208 0,-1.92785 -0.72431,-2.08208 -9.77829,-2.08208 h -9.77831 v -16.656592 -16.6566 h -3.25943 z m 32.59436,0 v 18.73867 18.738682 h 13.03773 c 12.31342,0 13.03774,-0.11569 13.03774,-2.08208 0,-1.92785 -0.72432,-2.08208 -9.7783,-2.08208 h -9.77831 v -16.656592 -16.6566 h -3.25944 z m 51.126,0 c -2.75527,0 -3.00655,0.53248 -7.14274,15.09504 -2.35808,8.30227 -4.54122,15.09009 -4.85095,15.08488 -0.30973,-0.005 -2.43216,-6.6764 -4.71726,-14.82462 -2.28512,-8.14823 -4.31789,-14.97058 -4.51781,-15.16213 -0.1999,-0.19124 -1.57605,-0.19639 -3.05784,-0.0105 l -2.69498,0.33752 5.356,17.17711 c 2.94578,9.44741 5.56541,17.762692 5.82072,18.478412 0.25533,0.71571 1.93154,1.3013 3.72629,1.3013 3.58342,0 2.71369,1.882707 8.91252,-19.259212 1.17514,-4.00797 2.40973,-7.98995 2.74378,-8.8488 0.33403,-0.85886 1.95565,3.12311 3.6032,8.8488 1.64755,5.72572 3.57483,12.43076 4.28224,14.897832 1.19993,4.18517 1.5133,4.46455 4.68121,4.16415 l 3.39524,-0.3233 5.74857,-18.218162 c 3.16176,-10.01997 5.76314,-18.33525 5.78041,-18.47839 -7e-5,-0.002 -10e-4,-0.008 -0.002,-0.0105 -0.001,-0.002 -0.002,-0.008 -0.004,-0.0105 -0.12094,-0.13237 -1.40705,-0.23993 -2.97083,-0.23993 -2.95057,0 -3.08746,0.28684 -7.29342,15.09503 -2.35808,8.30228 -4.67228,15.09504 -5.14166,15.09504 -0.46941,0 -0.85307,-0.58011 -0.85307,-1.28909 0,-0.70897 -1.78726,-7.50174 -3.97244,-15.09504 -3.81246,-13.247 -4.09063,-13.80581 -6.83105,-13.80581 z m 32.53281,0 v 18.73867 18.738682 h 2.7162 2.7162 V 80.374811 61.636141 h -2.7162 z m 16.29718,0 v 18.73867 c 0,17.960022 0.0884,18.738682 2.14325,18.738682 2.02374,0 2.16076,-0.8607 2.44458,-15.355302 l 0.30133,-15.35532 10.27484,15.35532 c 9.82155,14.677682 10.43283,15.355302 13.8526,15.355302 h 3.57774 V 80.374811 61.636141 h -2.68648 -2.68861 l -0.2992,15.35123 -0.30134,15.35124 -10.15602,-15.35124 c -9.27102,-14.01471 -10.42947,-15.35123 -13.30936,-15.35123 z m 127.6145,0 c -1.46861,0 -2.6695,0.29311 -2.6695,0.65065 0,0.35755 2.5312,8.78994 5.62549,18.73867 l 5.6255,18.088032 h 3.36128 3.36129 l 4.21436,-14.684322 c 2.37892,-8.28816 4.54342,-14.0698 4.96765,-13.27323 0.41341,0.77624 2.41607,7.38376 4.45202,14.68229 l 3.70294,13.269152 3.36765,0.004 3.36978,0.002 5.60429,-17.957892 c 3.08237,-9.87684 5.59909,-18.30925 5.59367,-18.73868 -0.005,-0.42942 -1.23079,-0.78077 -2.7247,-0.78077 -1.44722,0 -2.64097,0.11222 -2.71406,0.25009 -8.9e-4,0.002 -0.002,0.008 -0.002,0.0105 v 0.002 c 0,0.93458 -8.72091,29.26229 -9.12896,29.65329 -0.27905,0.26737 -1.05476,-1.55296 -1.7252,-4.04418 -0.67047,-2.49122 -1.65206,-5.93554 -2.17933,-7.65326 -0.52725,-1.71771 -1.98535,-6.5195 -3.24247,-10.67062 -2.03746,-6.72791 -2.57684,-7.54753 -4.95706,-7.54753 -1.4227,0 -2.59552,0.11222 -2.66736,0.2501 -8.8e-4,0.002 -0.002,0.008 -0.002,0.0105 v 0.002 c 0,0.79117 -8.6875,29.23034 -9.02921,29.55773 -9.2e-4,7.4e-4 -0.005,0.003 -0.006,0.004 l -0.002,0.002 c -9.9e-4,3.9e-4 -0.005,0.002 -0.006,0.002 -0.001,1.8e-4 -0.005,0.002 -0.006,0.002 -0.27987,-0.0114 -1.51482,-3.39385 -2.80106,-7.69799 -6.85884,-22.95139 -6.51207,-22.13221 -9.3815,-22.13221 z m -284.71669,0.1464 c -2.27146,0.038 -3.09725,1.94128 -9.41757,16.72166 -3.9904,9.33175 -7.56516,17.785462 -7.94487,18.787472 -0.53949,1.42364 -0.10144,1.82182 2.00743,1.82182 2.20245,0 3.1283,-0.95706 5.03558,-5.2052 l 2.33635,-5.205192 h 9.09714 9.09501 l 1.95438,5.205192 c 1.70013,4.53014 2.34043,5.2052 4.94008,5.2052 h 2.98569 l -7.8812,-18.478422 c -7.58546,-17.78344 -8.00353,-18.48892 -11.12579,-18.78747 -0.40375,-0.0386 -0.75775,-0.0705 -1.08223,-0.0651 z m 258.14254,3.1841 c 3.6803,-0.0229 7.4449,1.23907 10.2218,3.89984 3.19402,3.06042 3.3613,3.63161 3.3613,11.50833 0,7.89669 -0.16117,8.44206 -3.39948,11.54494 -6.26917,6.006962 -17.08464,4.853922 -21.48978,-2.29149 -2.59698,-4.21246 -2.70068,-13.81527 -0.19947,-18.44385 2.18011,-4.03437 6.7738,-6.18827 11.50563,-6.21777 z m -54.32179,0.83365 h 6.00958 c 11.76611,0 17.29434,4.4732 17.2436,13.95234 -0.0366,6.82565 -2.77697,11.81265 -7.53744,13.718512 -2.03258,0.81376 -6.40036,1.47819 -9.70616,1.47819 h -6.00958 V 80.374811 Z m -202.93163,0.52052 1.38781,3.64362 c 0.76362,2.00401 2.41361,6.10309 3.66687,9.10909 l 2.27905,5.46543 h -7.04726 c -3.83002,0 -6.97202,-0.21113 -7.04513,-0.47172 -2e-4,-0.001 9e-5,-0.005 0,-0.006 v -0.002 c 0,-0.44252 3.19437,-8.91765 5.70614,-15.13571 z m -69.23115,44.764599 -0.32468,6.50647 -0.32254,6.50649 h 208.16455 208.16456 l -0.32467,-6.50649 -0.32256,-6.50647 H 384.48853 Z" /></g></svg>
