<?xml version="1.0" encoding="UTF-8" standalone="no"?>
<!-- Created with Inkscape (http://www.inkscape.org/) -->

<svg
   version="1.1"
   id="svg1"
   width="594"
   height="268"
   viewBox="0 0 594 268"
   xml:space="preserve"
   xmlns="http://www.w3.org/2000/svg"
   xmlns:svg="http://www.w3.org/2000/svg"><defs
     id="defs1" /><g
     id="g1"><path
       style="fill:#613fb4;fill-opacity:1"
       d="m 32.683636,203.53801 c -1.226541,-0.23692 -3.139041,-1.58632 -4.25,-2.99868 -1.982753,-2.52066 -2.019925,-3.85257 -2.019925,-72.37729 V 58.35266 l 2.413002,-2.805763 2.413002,-2.805764 67.836997,-0.295568 c 37.310348,-0.162563 69.324598,-0.02496 71.142778,0.305776 1.81818,0.330741 4.18068,1.476247 5.25,2.545569 1.88889,1.888895 1.94422,3.952365 1.94422,72.50996 0,44.11703 -0.3669,71.2513 -0.97889,72.39482 -2.07934,3.88528 -5.10433,4.04394 -74.42033,3.90326 -36.905429,-0.0749 -68.104312,-0.33003 -69.330854,-0.56694 z m 138.795814,-4.33206 c 1.88404,-1.00831 1.93426,-2.8509 1.93426,-70.96482 0,-68.113919 -0.0502,-69.956508 -1.93426,-70.964813 -1.27872,-0.684353 -24.89077,-1.035184 -69.67126,-1.035184 -61.626667,0 -67.901962,0.149291 -69.565738,1.654988 -1.737758,1.572648 -1.828741,5.063801 -1.828741,70.171259 0,62.35179 0.148901,68.6808 1.654988,70.34501 1.572375,1.73745 5.044899,1.82874 69.565741,1.82874 44.90026,0 68.56615,-0.35076 69.84501,-1.03518 z M 116.41371,181.35276 C 99.588732,175.8747 73.355238,154.23469 60.308347,135.07143 48.906471,118.32438 45.948905,108.53195 48.852607,97.141747 53.007962,80.841745 68.077486,69.469218 76.61854,76.187612 79.490886,78.447 87.312516,91.522346 88.082996,95.352636 c 0.759473,3.775568 -2.081333,8.495434 -6.94778,11.543424 -5.010389,3.13815 -5.686005,4.01905 -5.706192,7.44003 -0.05469,9.26794 31.612276,40.90504 40.943656,40.90504 2.97888,0 4.91482,-1.75262 7.43737,-6.73307 1.83639,-3.62572 6.14198,-6.26693 10.21611,-6.26693 3.32041,0 17.64656,8.24252 20.39159,11.73227 5.36848,6.82491 -0.68268,17.74031 -13.45289,24.26703 -5.83156,2.98044 -7.97394,3.53095 -14.44895,3.7128 -4.18121,0.11743 -8.7272,-0.15278 -10.1022,-0.60047 z m 2.58282,-54.36163 c -0.19492,-0.6875 -0.84823,-3.07695 -1.4518,-5.30989 -1.41901,-5.24978 -4.89394,-8.43518 -10.85225,-9.94805 -5.11053,-1.29762 -6.47147,-3.75267 -2.3995,-4.32855 3.75966,-0.53171 10.75074,2.65106 14.03205,6.38827 3.09567,3.52577 5.63208,10.58977 4.68683,13.05303 -0.6653,1.73377 -3.5355,1.83755 -4.01533,0.14519 z m 13.02117,0.0739 c -0.21448,-0.72815 -0.91329,-3.87966 -1.5529,-7.00335 -2.17259,-10.61028 -9.87831,-17.90574 -22.04577,-20.872056 -4.23832,-1.033263 -6.50532,-2.084713 -6.50532,-3.017218 0,-1.077916 1.2991,-1.397093 5.26192,-1.292802 14.09176,0.370857 27.37892,13.831856 28.45386,28.826146 0.22332,3.11513 -0.0914,4.04161 -1.4688,4.3239 -0.96417,0.19761 -1.92851,-0.23647 -2.14299,-0.96462 z m 12.97664,-0.0739 c -0.19613,-0.6875 -0.8377,-4.10555 -1.42572,-7.59566 -2.90388,-17.23578 -16.46447,-30.358653 -34.45118,-33.339148 -5.45888,-0.904565 -6.70373,-1.454782 -6.70373,-2.963015 0,-2.296961 5.00703,-2.494365 12.5,-0.492819 19.96283,5.332538 35.0148,25.222742 33.59274,44.390642 -0.051,0.6875 -0.78186,1.25 -1.62412,1.25 -0.84227,0 -1.69186,-0.5625 -1.88799,-1.25 z M 37.080378,111.57446 c -0.366667,-0.36666 -0.666667,-7.35579 -0.666667,-15.531377 0,-12.707079 0.232377,-14.95389 1.600925,-15.479051 0.880509,-0.337883 1.998618,0.01374 2.484687,0.781385 0.989522,1.562742 1.254648,26.845433 0.307399,29.313923 -0.623786,1.62556 -2.544269,2.0972 -3.726344,0.91512 z m 0.50954,-34.55712 c -1.803916,-1.803916 -1.493312,-8.717291 0.424718,-9.453308 2.035278,-0.78101 3.364166,1.302262 3.383762,5.304657 0.01817,3.711639 -2.022523,5.934609 -3.80848,4.148651 z m 150.026072,86.97379 0.29772,-6.25 h 191 191 l 0.29772,6.25 0.29772,6.25 H 378.91371 187.31828 Z m 20.19879,-18.65543 c -2.25441,-1.02383 -5.17941,-3.37645 -6.5,-5.22804 -2.09161,-2.93264 -2.40107,-4.48482 -2.40107,-12.0432 0,-9.40558 1.06471,-11.91895 6.88872,-16.26154 4.15898,-3.1011 15.86184,-2.95296 20.36332,0.25775 4.70508,3.35595 5.80321,5.81293 3.21672,7.19718 -1.741,0.93175 -2.48699,0.64002 -4.86042,-1.90074 -3.23682,-3.46503 -6.73103,-4.59695 -11.45498,-3.71073 -10.91523,2.04771 -13.36324,21.53343 -3.46353,27.56912 5.67754,3.4615 12.45545,2.02914 16.46882,-3.48032 1.65277,-2.26889 2.08013,-2.40555 3.73607,-1.19469 1.78032,1.3018 1.78773,1.49256 0.15472,3.98484 -2.25106,3.43556 -9.17983,6.72139 -14.11516,6.69384 -2.16385,-0.0121 -5.7788,-0.85964 -8.03321,-1.88347 z m 273.04935,0.49883 c -13.74085,-5.98514 -13.63374,-29.44059 0.16077,-35.2043 7.08903,-2.96199 16.65034,-1.13313 21.20677,4.05635 5.54215,6.31216 6.04721,18.72205 1.0477,25.74322 -4.19574,5.89237 -15.20264,8.54635 -22.41524,5.40473 z m 16.92122,-6.5035 c 2.98057,-2.98057 3.12836,-3.50449 3.12836,-11.0899 0,-7.56623 -0.15359,-8.11513 -3.09338,-11.05492 -5.84202,-5.84202 -16.4301,-4.66334 -19.99738,2.22614 -2.30213,4.44612 -2.20639,13.67072 0.18388,17.71713 4.05452,6.86375 14.00835,7.97172 19.77852,2.20155 z m -262.95018,5.1601 c 0.34949,-0.9625 3.64044,-9.08409 7.31322,-18.04798 6.64828,-16.226 6.69096,-16.29666 9.66383,-16 2.87375,0.28677 3.2589,0.96555 10.24059,18.04798 l 7.25452,17.75 h -2.74926 c -2.39273,0 -2.98244,-0.64843 -4.54724,-5 l -1.79798,-5 h -8.37177 -8.37177 l -2.15094,5 c -1.75547,4.08068 -2.60764,5 -4.63479,5 -1.94097,0 -2.34496,-0.38248 -1.84841,-1.75 z m 21.4521,-17.5 c -1.1535,-2.8875 -2.67231,-6.825 -3.37515,-8.75 l -1.27788,-3.5 -0.96762,2.5 c -2.31184,5.97295 -5.25291,14.11242 -5.25291,14.53751 0,0.25437 2.91843,0.46249 6.48541,0.46249 h 6.48541 z m 17.12644,1.25 v -18 h 3 3 v 16 16 h 9 c 8.33333,0 9,0.14815 9,2 0,1.88889 -0.66667,2 -12,2 h -12 z m 30,0 v -18 h 3 3 v 16 16 h 9 c 8.33333,0 9,0.14815 9,2 0,1.88889 -0.66667,2 -12,2 h -12 z m 32.50996,16.75 c -0.235,-0.6875 -2.64561,-8.675 -5.35691,-17.75 l -4.92964,-16.5 2.47972,-0.32524 c 1.36384,-0.17889 2.63026,-0.1747 2.81426,0.009 0.184,0.184 2.05536,6.73847 4.15858,14.56549 2.10322,7.82702 4.05727,14.23534 4.34235,14.2407 0.28508,0.005 2.2941,-6.51524 4.46449,-14.49024 3.80697,-13.98851 4.0389,-14.5 6.57487,-14.5 2.52229,0 2.77672,0.53682 6.28551,13.26177 2.01125,7.29398 3.65681,13.81898 3.65681,14.5 0,0.68103 0.35348,1.23823 0.78551,1.23823 0.43203,0 2.56129,-6.525 4.73168,-14.5 3.87118,-14.22446 3.99878,-14.5 6.71449,-14.5 1.52258,0 2.75527,0.1125 2.73932,0.25 -0.0159,0.1375 -2.40999,8.125 -5.32009,17.75 l -5.29109,17.5 -3.1254,0.30929 c -2.91575,0.28855 -3.20481,0.0202 -4.30923,-4 -0.65111,-2.36982 -2.42454,-8.809 -3.94095,-14.309 -1.51642,-5.5 -3.00868,-9.325 -3.31613,-8.5 -0.30746,0.825 -1.44397,4.65 -2.52558,8.5 -5.70543,20.30849 -4.90365,18.5 -8.20185,18.5 -1.6519,0 -3.19572,-0.5625 -3.43072,-1.25 z m 44.49004,-16.75 v -18 h 2.5 2.5 v 18 18 h -2.5 -2.5 z m 15,0 v -18 h 2.90337 c 2.65066,0 3.7169,1.28347 12.25,14.74574 l 9.34663,14.74574 0.27673,-14.74574 0.27674,-14.74574 h 2.47326 2.47327 v 18 18 h -3.29289 c -3.14758,0 -3.71021,-0.65089 -12.75,-14.75 l -9.45711,-14.75 -0.27673,14.75 c -0.26122,13.92323 -0.38734,14.75 -2.25,14.75 -1.89127,0 -1.97327,-0.74795 -1.97327,-18 z m 38,-0.11342 v -18.11342 l 10.25357,0.37956 c 8.65779,0.32049 10.85502,0.75127 14.11808,2.76796 6.52379,4.03192 9.35145,13.73001 6.30227,21.61501 -3.37861,8.73691 -8.46627,11.46431 -21.38536,11.46431 h -9.28856 z m 19.4657,12.6922 c 4.38156,-1.83073 6.90306,-6.62069 6.93671,-13.17727 0.0467,-9.10548 -5.0407,-13.40151 -15.87029,-13.40151 h -5.53212 v 14 14 h 5.53212 c 3.04267,0 7.06278,-0.63955 8.93358,-1.42122 z m 62.71248,-11.95433 c -2.848,-9.55655 -5.17818,-17.65655 -5.17818,-18 0,-0.34345 1.10595,-0.62445 2.45766,-0.62445 2.64103,0 2.32142,-0.78695 8.63432,21.25971 1.22206,4.26784 2.39103,7.59062 2.59769,7.38395 0.31451,-0.3145 8.31033,-27.63209 8.31033,-28.39208 0,-0.13837 1.10595,-0.25158 2.45766,-0.25158 2.19076,0 2.6861,0.78731 4.56139,7.25 1.15705,3.9875 2.5008,8.6 2.98609,10.25 0.4853,1.65 1.38725,4.95792 2.00434,7.35094 0.61708,2.39302 1.33212,4.1408 1.58896,3.88396 0.37558,-0.37559 8.40156,-27.58559 8.40156,-28.48332 0,-0.13837 1.125,-0.25158 2.5,-0.25158 1.375,0 2.50391,0.3375 2.50869,0.75 0.005,0.4125 -2.31252,8.5125 -5.14955,18 l -5.15824,17.25 -3.10045,-0.003 -3.10045,-0.003 -3.40708,-12.74692 c -1.8739,-7.01081 -3.7184,-13.35699 -4.0989,-14.10262 -0.39047,-0.76517 -2.38162,4.78856 -4.5712,12.75 l -3.87939,14.10554 h -3.09354 -3.09354 z M 188.08294,98.577034 c -0.36808,-0.36808 -0.66923,-3.294233 -0.66923,-6.502567 v -5.833333 h 191.54772 191.54772 l -0.29772,6.25 -0.29772,6.25 -190.58077,0.25256 c -104.81942,0.13891 -190.88192,-0.0486 -191.25,-0.41666 z"
       id="path1" /></g></svg>
