<?xml version="1.0" encoding="UTF-8" standalone="no"?>
<!-- Created with Inkscape (http://www.inkscape.org/) -->

<svg
   version="1.1"
   id="svg1"
   width="594"
   height="268"
   viewBox="0 0 594 268"
   xml:space="preserve"
   xmlns="http://www.w3.org/2000/svg"
   xmlns:svg="http://www.w3.org/2000/svg"><defs
     id="defs1" /><g
     id="g1"><path
       id="path1"
       style="fill:#613fb4;fill-opacity:1;stroke-width:1.04072"
       d="m 88.150515,56.599346 -71.200337,0.304335 -2.53379,2.896223 -2.531741,2.896222 v 1.068196 c 0.0029,0.02206 0.0056,0.04403 0.0082,0.06651 0.0014,0.02066 -8e-5,0.04179 0,0.06248 9.2e-5,0.0492 -2.28e-4,0.09793 0,0.147129 2.22e-4,0.05388 0.0015,0.109366 0.0021,0.163252 3e-5,0.0056 3.4e-5,0.01054 0,0.01613 v 0.0021 c 1.43e-4,6.38e-4 0.0016,0.0028 0.0021,0.004 v 0.0021 0.0021 0.0021 h -0.0021 l -0.0021,0.0021 v 0.0021 h 0.0021 v 0.0021 0.0021 h -0.0021 -0.0021 c -0.0016,-2.97e-4 -0.0033,-0.0012 -0.0062,-0.0021 v 70.494897 c 1e-6,70.71186 0.0386,72.08594 2.119692,74.68705 1.166058,1.45744 3.173411,2.84926 4.460784,3.09374 1.287373,0.24448 34.032785,0.50921 72.768577,0.58651 72.7538,0.14517 75.93045,-0.0196 78.11292,-4.02892 0.64233,-1.18002 1.02704,-29.18005 1.02704,-74.7052 0,-70.745794 -0.0592,-72.874925 -2.0418,-74.824109 -1.12235,-1.103452 -3.60202,-2.284853 -5.51038,-2.62615 -1.90835,-0.341293 -35.51018,-0.48418 -74.670966,-0.316429 z m 2.867935,3.916047 c 47.00143,0 71.78315,0.362002 73.12529,1.068197 1.9775,1.040488 2.03154,2.941919 2.03154,73.22988 0,70.28796 -0.0541,72.1894 -2.03154,73.22989 -1.34228,0.70626 -26.18059,1.06819 -73.30773,1.06819 -67.72083,0 -71.366276,-0.0936 -73.016634,-1.88647 -1.580784,-1.71732 -1.736344,-8.24905 -1.736344,-72.59098 0,-67.185547 0.09485,-70.78675 1.918793,-72.409593 1.746292,-1.553755 8.333519,-1.709114 73.016625,-1.709114 z m -66.1922,11.520395 c -0.242622,0.01037 -0.49967,0.06452 -0.766698,0.165267 -2.013156,0.759509 -2.338231,7.893355 -0.444848,9.754848 1.874534,1.842962 4.016556,-0.450739 3.997486,-4.280845 -0.018,-3.613876 -1.087587,-5.71124 -2.78594,-5.63927 z m 34.107773,7.044047 c -8.848631,-0.332921 -19.953338,9.976951 -23.497012,23.643415 -3.047715,11.75376 0.05584,21.85875 12.023205,39.14033 13.693966,19.77491 41.22865,42.10553 58.888084,47.75844 1.44319,0.46198 6.21399,0.73993 10.60255,0.61874 6.79615,-0.18765 9.04506,-0.75583 15.16585,-3.83139 13.40356,-6.73504 19.75508,-17.9994 14.12035,-25.04214 -2.88117,-3.60114 -17.91889,-12.10691 -21.40397,-12.10691 -4.2762,0 -8.79399,2.72619 -10.72146,6.46763 -2.64766,5.13942 -4.67975,6.9473 -7.80637,6.9473 -9.794181,0 -43.031395,-32.64611 -42.973993,-42.20986 0.02119,-3.53018 0.729143,-4.4386 5.988028,-7.67691 5.107804,-3.14527 8.088963,-8.01532 7.291822,-11.9114 C 75.802415,96.924538 67.594505,83.430833 64.579703,81.099331 62.898829,79.799425 60.976016,79.156664 58.934023,79.079835 Z M 24.78525,85.482966 c -0.247956,0.0027 -0.494653,0.04586 -0.725698,0.133021 -1.436422,0.541922 -1.678944,2.859895 -1.678944,15.972553 1e-6,8.43655 0.314195,15.64862 0.699048,16.02698 1.240701,1.21981 3.256663,0.7342 3.911386,-0.94323 C 27.985271,114.125 27.707791,88.034794 26.669193,86.422172 26.28656,85.828061 25.529116,85.475054 24.78525,85.482966 Z m 70.478744,0.824325 c -2.296916,0.08904 -3.610045,0.733583 -3.610045,1.918722 0,1.556372 1.30596,2.124022 7.03558,3.05746 18.878781,3.075625 33.111911,16.616057 36.159811,34.401967 0.61718,3.60151 1.29064,7.12869 1.49649,7.83814 0.20587,0.70944 1.0983,1.28989 1.98235,1.28989 0.88403,0 1.65001,-0.58045 1.70354,-1.28989 1.49259,-19.7797 -14.30491,-40.30474 -35.25782,-45.80748 -3.93229,-1.032716 -7.213011,-1.497841 -9.509906,-1.408809 z m 85.605626,5.165635 v 6.020192 c 0,3.310742 0.31476,6.329662 0.70109,6.709492 0.38635,0.3798 90.7172,0.57465 200.73526,0.4313 l 200.03416,-0.26201 0.31161,-6.449489 0.31365,-6.449485 H 381.91648 Z m -84.217791,8.914394 c -4.159357,-0.10761 -5.522677,0.22192 -5.522677,1.33425 0,0.96226 2.38,2.04765 6.828527,3.11389 12.770911,3.06099 20.857911,10.59033 23.138261,21.53926 0.67133,3.2234 1.40463,6.47405 1.62975,7.22544 0.22512,0.7514 1.23685,1.19957 2.24884,0.99565 1.44572,-0.2913 1.77599,-1.24768 1.54159,-4.46224 -1.12825,-15.47288 -15.07363,-29.36355 -29.864291,-29.74625 z m -2.24884,12.86674 c -0.271352,0.005 -0.530309,0.0242 -0.776943,0.0584 -4.273924,0.59426 -2.844552,3.12722 2.519443,4.46627 6.253811,1.56115 9.900371,4.84943 11.389751,10.26677 0.63351,2.30421 1.31856,4.76859 1.52315,5.47802 0.50362,1.74639 3.51648,1.63998 4.21479,-0.14914 0.99213,-2.54187 -1.67078,-9.83104 -4.91999,-13.46934 -3.2288,-3.61546 -9.879921,-6.72817 -13.950201,-6.65103 z m 403.690661,1.95701 c -3.10618,-0.16641 -6.26049,0.28477 -9.05072,1.43098 -14.47867,5.94767 -14.5925,30.15056 -0.17015,36.32673 7.57032,3.24189 19.12394,0.50365 23.52777,-5.57679 5.24746,-7.24527 4.71822,-20.05019 -1.0988,-26.56382 -2.98902,-3.34695 -8.03113,-5.33976 -13.2081,-5.6171 z m -287.37204,0.33053 c -4.20706,-0.0524 -8.36869,0.70969 -10.55132,2.30973 -6.11286,4.48119 -7.23032,7.07496 -7.23032,16.78075 0,7.79963 0.32409,9.40111 2.51944,12.42736 1.38609,1.91069 4.45615,4.33889 6.82238,5.3954 2.36622,1.05651 6.16045,1.93042 8.43163,1.9429 5.18009,0.0284 12.45258,-3.36177 14.81528,-6.907 1.714,-2.57182 1.70667,-2.76818 -0.16194,-4.11153 -1.73808,-1.24951 -2.18689,-1.10986 -3.92164,1.23145 -4.21241,5.68531 -11.32641,7.16353 -17.28553,3.59154 -10.3907,-6.22833 -7.82195,-26.33521 3.63464,-28.44828 4.95823,-0.91451 8.62584,0.25376 12.02319,3.82939 2.49115,2.62185 3.27509,2.92254 5.10243,1.96104 2.71478,-1.42843 1.56211,-3.96391 -3.37632,-7.42698 -2.36238,-1.6566 -6.61486,-2.52341 -10.82192,-2.57577 z m 228.34865,0.46356 v 18.69141 18.69143 h 9.74977 c 13.55983,0 18.89919,-2.81299 22.44536,-11.82877 3.20041,-8.13667 0.23203,-18.14453 -6.61531,-22.30514 -3.4249,-2.08106 -5.73017,-2.52519 -14.81735,-2.85591 z m -167.93538,0.23379 v 18.57452 18.57453 h 12.59515 c 11.89543,0 12.59516,-0.11467 12.59516,-2.06384 0,-1.91096 -0.69973,-2.06384 -9.44636,-2.06384 h -9.44637 v -16.51068 -16.51069 h -3.14878 z m 31.48789,0 v 18.57452 18.57453 h 12.59515 c 11.89542,0 12.59515,-0.11467 12.59515,-2.06384 0,-1.91096 -0.69973,-2.06384 -9.44636,-2.06384 h -9.44637 v -16.51068 -16.51069 h -3.14879 z m 49.39046,0 c -2.66174,0 -2.90449,0.52782 -6.90027,14.96281 -2.27803,8.22954 -4.38706,14.9579 -4.68628,14.95274 -0.29922,-0.005 -2.3496,-6.61792 -4.55713,-14.69476 -2.20754,-8.07685 -4.17131,-14.83944 -4.36444,-15.02931 -0.19312,-0.18957 -1.52255,-0.19467 -2.95404,-0.0104 l -2.60349,0.33456 5.17418,17.02664 c 2.84578,9.36466 5.37648,17.6071 5.62313,18.31655 0.24666,0.70944 1.86597,1.2899 3.59979,1.2899 3.46178,0 2.62157,1.86621 8.60997,-19.0905 1.13525,-3.97287 2.32793,-7.91996 2.65064,-8.77129 0.32269,-0.85134 1.88926,3.09575 3.48089,8.77129 1.59162,5.67556 3.45347,12.32186 4.13687,14.76732 1.1592,4.14851 1.46193,4.42544 4.5223,4.12767 l 3.27998,-0.32046 5.55343,-18.05857 c 3.05443,-9.9322 5.5675,-18.17464 5.58418,-18.31653 -6e-5,-0.002 -10e-4,-0.008 -0.002,-0.0104 -10e-4,-0.002 -0.002,-0.008 -0.004,-0.0104 -0.11684,-0.13121 -1.35929,-0.23783 -2.86999,-0.23783 -2.8504,0 -2.98265,0.28433 -7.04583,14.9628 -2.27803,8.22955 -4.51367,14.96281 -4.96712,14.96281 -0.45347,0 -0.82411,-0.57503 -0.82411,-1.2778 0,-0.70276 -1.72659,-7.43602 -3.83759,-14.96281 -3.68304,-13.13096 -3.95177,-13.68487 -6.59916,-13.68487 z m 31.42843,0 v 18.57452 18.57453 h 2.624 2.62399 v -18.57453 -18.57452 h -2.62399 z m 15.74395,0 v 18.57452 c 0,17.8027 0.0854,18.57453 2.0705,18.57453 1.95504,0 2.08741,-0.85316 2.36159,-15.22079 l 0.2911,-15.2208 9.92605,15.2208 c 9.48814,14.54911 10.07867,15.22079 13.38235,15.22079 h 3.45629 v -18.57453 -18.57452 h -2.59528 -2.59734 l -0.28905,15.21676 -0.29111,15.21676 -9.81126,-15.21676 c -8.9563,-13.89195 -10.07542,-15.21676 -12.85755,-15.21676 z m 123.28244,0 c -1.41875,0 -2.57888,0.29054 -2.57888,0.64495 0,0.35442 2.44528,8.71294 5.43453,18.57452 l 5.43453,17.92958 h 3.24718 3.24719 l 4.07129,-14.55568 c 2.29817,-8.21556 4.38919,-13.94655 4.79902,-13.15696 0.39938,0.76944 2.33405,7.31908 4.30089,14.55367 l 3.57724,13.15292 3.25333,0.004 3.25539,0.002 5.41404,-17.80058 c 2.97773,-9.79032 5.40902,-18.14886 5.40378,-18.57453 -0.005,-0.42566 -1.189,-0.77393 -2.6322,-0.77393 -1.39809,0 -2.55132,0.11124 -2.62193,0.2479 -8.6e-4,0.002 -0.002,0.008 -0.002,0.0104 v 0.002 c 0,0.92639 -8.42486,29.00596 -8.81906,29.39353 -0.26958,0.26503 -1.01896,-1.53935 -1.66664,-4.00875 -0.64771,-2.4694 -1.59598,-5.88355 -2.10535,-7.58622 -0.50935,-1.70266 -1.91795,-6.46239 -3.1324,-10.57715 -1.96829,-6.66897 -2.48936,-7.48141 -4.78878,-7.48141 -1.37441,0 -2.50741,0.11124 -2.57682,0.24791 -8.5e-4,0.002 -0.002,0.008 -0.002,0.0104 v 0.002 c 0,0.78424 -8.39259,28.97428 -8.7227,29.29881 -8.8e-4,7.3e-4 -0.005,0.003 -0.006,0.004 l -0.002,0.002 c -9.6e-4,3.9e-4 -0.005,0.002 -0.006,0.002 -10e-4,1.7e-4 -0.005,0.002 -0.006,0.002 -0.27037,-0.0113 -1.4634,-3.36412 -2.70598,-7.63056 -6.626,-22.75034 -6.29101,-21.93833 -9.06303,-21.93833 z m -275.05157,0.14512 c -2.19435,0.0377 -2.99211,1.92427 -9.09787,16.57518 -3.85494,9.25 -7.30835,17.62966 -7.67517,18.62289 -0.52118,1.41117 -0.098,1.80586 1.93928,1.80586 2.12769,0 3.02211,-0.94867 4.86464,-5.1596 l 2.25704,-5.15959 h 8.78832 8.78627 l 1.88804,5.15959 c 1.64241,4.49046 2.26098,5.1596 4.77238,5.1596 h 2.88434 l -7.61367,-18.31655 c -7.32796,-17.62766 -7.73183,-18.32696 -10.7481,-18.62289 -0.39005,-0.0383 -0.73203,-0.0699 -1.0455,-0.0645 z m 249.37952,3.15621 c 3.55537,-0.0227 7.19217,1.22821 9.87481,3.86567 3.08559,3.03362 3.24719,3.5998 3.24719,11.40752 0,7.82752 -0.15569,8.36811 -3.28408,11.44381 -6.05635,5.95434 -16.50467,4.8114 -20.76027,-2.27142 -2.50883,-4.17556 -2.60901,-13.69425 -0.1927,-18.28228 2.1061,-3.99903 6.54385,-6.13406 11.11505,-6.1633 z m -52.47776,0.82634 h 5.80558 c 11.36669,0 16.70726,4.43402 16.65824,13.83012 -0.0354,6.76586 -2.6827,11.70918 -7.28157,13.59834 -1.96358,0.80663 -6.18309,1.46524 -9.37667,1.46524 h -5.80558 v -14.44685 z m -196.04282,0.51596 1.3407,3.61171 c 0.7377,1.98645 2.33168,6.04962 3.54239,9.02929 l 2.20169,5.41756 h -6.80803 c -3.70001,0 -6.73535,-0.20929 -6.80598,-0.46759 -1.9e-4,-10e-4 9e-5,-0.005 0,-0.006 v -0.002 c 0,-0.43865 3.08594,-8.83953 5.51244,-15.00312 z m -66.881,44.37247 -0.31366,6.44948 -0.31159,6.44949 h 201.09811 201.09811 l -0.31365,-6.44949 -0.31161,-6.44948 H 381.86728 Z" /></g></svg>
